<svg xmlns="http://www.w3.org/2000/svg" xmlns:xlink="http://www.w3.org/1999/xlink" width="480" zoomAndPan="magnify" viewBox="0 0 360 359.999987" height="480" preserveAspectRatio="xMidYMid meet" version="1.0"><defs><clipPath id="89a67a4bb9"><path d="M 38 112 L 138 112 L 138 261 L 38 261 Z M 38 112 " clip-rule="nonzero"/></clipPath><clipPath id="56b459659d"><path d="M 116.589844 103.035156 L 209.925781 196.375 L 104.390625 301.910156 L 11.054688 208.570312 Z M 116.589844 103.035156 " clip-rule="nonzero"/></clipPath><clipPath id="3235dfd838"><path d="M 116.589844 103.035156 L 209.925781 196.375 L 104.390625 301.910156 L 11.054688 208.570312 Z M 116.589844 103.035156 " clip-rule="nonzero"/></clipPath><clipPath id="89c0200601"><path d="M 58.097656 254.644531 C 32.5625 229.109375 32.558594 187.480469 58.089844 161.949219 L 101.75 118.292969 C 110.007812 110.03125 123.527344 110.03125 131.789062 118.292969 C 140.050781 126.554688 140.050781 140.074219 131.792969 148.332031 L 88.132812 191.992188 C 79.121094 201.003906 79.121094 215.59375 88.136719 224.609375 C 96.398438 232.871094 96.398438 246.386719 88.136719 254.648438 C 79.878906 262.90625 66.359375 262.90625 58.097656 254.644531 Z M 58.097656 254.644531 " clip-rule="nonzero"/></clipPath><clipPath id="9047977872"><path d="M 51 174 L 201 174 L 201 274 L 51 274 Z M 51 174 " clip-rule="nonzero"/></clipPath><clipPath id="4c985776c2"><path d="M 116.589844 103.035156 L 209.925781 196.375 L 104.390625 301.910156 L 11.054688 208.570312 Z M 116.589844 103.035156 " clip-rule="nonzero"/></clipPath><clipPath id="5002c588ce"><path d="M 116.589844 103.035156 L 209.925781 196.375 L 104.390625 301.910156 L 11.054688 208.570312 Z M 116.589844 103.035156 " clip-rule="nonzero"/></clipPath><clipPath id="5204279de0"><path d="M 127.785156 217.578125 L 164.410156 180.953125 C 172.667969 172.691406 186.1875 172.691406 194.449219 180.953125 C 202.710938 189.214844 202.710938 202.734375 194.453125 210.996094 L 150.792969 254.652344 C 125.261719 280.183594 83.742188 280.289062 58.097656 254.644531 C 49.835938 246.382812 49.835938 232.863281 58.097656 224.605469 C 66.355469 216.34375 79.875 216.347656 88.136719 224.609375 C 97.148438 233.621094 111.738281 233.621094 120.75 224.609375 L 127.722656 217.640625 C 127.742188 217.617188 127.765625 217.597656 127.785156 217.578125 Z M 127.785156 217.578125 " clip-rule="nonzero"/></clipPath><clipPath id="2430be054e"><path d="M 159 174 L 308 174 L 308 274 L 159 274 Z M 159 174 " clip-rule="nonzero"/></clipPath><clipPath id="b956b13327"><path d="M 150.132812 196.308594 L 243.46875 102.96875 L 349.003906 208.507812 L 255.667969 301.84375 Z M 150.132812 196.308594 " clip-rule="nonzero"/></clipPath><clipPath id="8ead4d8eb1"><path d="M 150.132812 196.308594 L 243.46875 102.96875 L 349.003906 208.507812 L 255.667969 301.84375 Z M 150.132812 196.308594 " clip-rule="nonzero"/></clipPath><clipPath id="62a0eaae88"><path d="M 301.738281 254.796875 C 276.203125 280.335938 234.578125 280.339844 209.046875 254.808594 L 165.386719 211.148438 C 157.125 202.886719 157.128906 189.371094 165.390625 181.109375 C 173.652344 172.847656 187.167969 172.847656 195.429688 181.105469 L 239.089844 224.765625 C 248.097656 233.777344 262.691406 233.773438 271.703125 224.761719 C 279.964844 216.5 293.480469 216.5 301.742188 224.757812 C 310.003906 233.019531 310 246.535156 301.738281 254.796875 Z M 301.738281 254.796875 " clip-rule="nonzero"/></clipPath><clipPath id="11f55c1e89"><path d="M 221 112 L 321 112 L 321 261 L 221 261 Z M 221 112 " clip-rule="nonzero"/></clipPath><clipPath id="51f6e13fe5"><path d="M 150.132812 196.308594 L 243.46875 102.96875 L 349.003906 208.507812 L 255.667969 301.84375 Z M 150.132812 196.308594 " clip-rule="nonzero"/></clipPath><clipPath id="f68e77403f"><path d="M 150.132812 196.308594 L 243.46875 102.96875 L 349.003906 208.507812 L 255.667969 301.84375 Z M 150.132812 196.308594 " clip-rule="nonzero"/></clipPath><clipPath id="7a9190969d"><path d="M 264.671875 185.113281 L 228.046875 148.488281 C 219.785156 140.226562 219.789062 126.710938 228.050781 118.449219 C 236.3125 110.1875 249.828125 110.183594 258.089844 118.445312 L 301.75 162.105469 C 327.28125 187.636719 327.382812 229.15625 301.738281 254.796875 C 293.476562 263.058594 279.960938 263.0625 271.699219 254.800781 C 263.441406 246.542969 263.441406 233.023438 271.703125 224.761719 C 280.714844 215.75 280.71875 201.160156 271.707031 192.148438 L 264.734375 185.175781 C 264.714844 185.15625 264.691406 185.132812 264.671875 185.113281 Z M 264.671875 185.113281 " clip-rule="nonzero"/></clipPath><clipPath id="d2034a51e0"><path d="M 157.988281 58.34375 L 201.488281 58.34375 L 201.488281 101.84375 L 157.988281 101.84375 Z M 157.988281 58.34375 " clip-rule="nonzero"/></clipPath></defs><g clip-path="url(#89a67a4bb9)"><g clip-path="url(#56b459659d)"><g clip-path="url(#3235dfd838)"><g clip-path="url(#89c0200601)"><path fill="#e73363" d="M 86.304688 56.285156 L -43.878906 186.46875 L 86.304688 316.652344 L 216.488281 186.46875 Z M 86.304688 56.285156 " fill-opacity="1" fill-rule="nonzero"/></g></g></g></g><g clip-path="url(#9047977872)"><g clip-path="url(#4c985776c2)"><g clip-path="url(#5002c588ce)"><g clip-path="url(#5204279de0)"><path fill="#e73363" d="M 126.273438 96.253906 L -3.960938 226.488281 L 126.273438 356.726562 L 256.511719 226.488281 Z M 126.273438 96.253906 " fill-opacity="1" fill-rule="nonzero"/></g></g></g></g><g clip-path="url(#2430be054e)"><g clip-path="url(#b956b13327)"><g clip-path="url(#8ead4d8eb1)"><g clip-path="url(#62a0eaae88)"><path fill="#e73363" d="M 103.378906 226.59375 L 233.5625 356.777344 L 363.75 226.59375 L 233.5625 96.40625 Z M 103.378906 226.59375 " fill-opacity="1" fill-rule="nonzero"/></g></g></g></g><g clip-path="url(#11f55c1e89)"><g clip-path="url(#51f6e13fe5)"><g clip-path="url(#f68e77403f)"><g clip-path="url(#7a9190969d)"><path fill="#e73363" d="M 143.347656 186.625 L 273.585938 316.859375 L 403.820312 186.625 L 273.585938 56.386719 Z M 143.347656 186.625 " fill-opacity="1" fill-rule="nonzero"/></g></g></g></g><g clip-path="url(#d2034a51e0)"><path fill="#e73363" d="M 179.734375 58.34375 C 167.71875 58.34375 157.988281 68.074219 157.988281 80.089844 C 157.988281 92.101562 167.71875 101.832031 179.734375 101.832031 C 191.746094 101.832031 201.476562 92.101562 201.476562 80.089844 C 201.476562 68.074219 191.746094 58.34375 179.734375 58.34375 Z M 179.734375 58.34375 " fill-opacity="1" fill-rule="nonzero"/></g></svg>